# xmcd
#
# Track frame offsets:
#	150
#	10750
#	21138
#	31962
#	43675
#	54832
#	64001
#	74764
#	84577
#	93751
#	104464
#	118175
#	128422
#	139176
#	150165
#	160614
#	171905
#	182382
#	195282
#	210348
#	222438
#	234565
#	244765
#	255728
#	269203
#	278778
#	292132
#	302782
#
# Disc length: 4177 seconds
#
# Revision: 0
# Processed by: cddbd v1.5.2PL0 Copyright (c) Steve Scherf et al.
# Submitted via: EZCDAudioConverter 2.2.2.1
#
DISCID=87104f1c
DTITLE=Eddie "Guitar Slim" Jones - I Got Sumpin' For You - The 1953-1958 Recor
DTITLE=dings
DYEAR=1900
DGENRE=
TTITLE0=oh Yeah!
TTITLE1=The Cackle
TTITLE2=Think It Over
TTITLE3=Guitar Slim
TTITLE4=Well I done Got Over It
TTITLE5=Plenty Good Room
TTITLE6=I Got Sumpin' For You
TTITLE7=Letter To My Girlfriend
TTITLE8=If I Had My Life To Live Over
TTITLE9=Later For You Baby
TTITLE10=The Things I Used To Do
TTITLE11=Twenty-Five Lies
TTITLE12=Quicksand
TTITLE13=If I Should Lose You
TTITLE14=I Want To Love-A You
TTITLE15=Sufferin' Mind
TTITLE16=You Give Me Nothing But The Blues
TTITLE17=Reap What You Sow
TTITLE18=Something To Remember You By
TTITLE19=It Hurts To Love Someone
TTITLE20=I Won't Mind At All
TTITLE21=Stand By Me
TTITLE22=Down Through The Years
TTITLE23=Strange Things Happening
TTITLE24=Our Only Child
TTITLE25=Bad Luck Blues
TTITLE26=Certainly All
TTITLE27=Hello, How Ya' Been? Goodbye
EXTD=
EXTT0=
EXTT1=
EXTT2=
EXTT3=
EXTT4=
EXTT5=
EXTT6=
EXTT7=
EXTT8=
EXTT9=
EXTT10=
EXTT11=
EXTT12=
EXTT13=
EXTT14=
EXTT15=
EXTT16=
EXTT17=
EXTT18=
EXTT19=
EXTT20=
EXTT21=
EXTT22=
EXTT23=
EXTT24=
EXTT25=
EXTT26=
EXTT27=
PLAYORDER=
